<?xml version="1.0" standalone="no"?>
<!DOCTYPE svg PUBLIC "-//W3C//DTD SVG 20010904//EN"
 "http://www.w3.org/TR/2001/REC-SVG-20010904/DTD/svg10.dtd">
<svg version="1.0" xmlns="http://www.w3.org/2000/svg"
 width="480.000000pt" height="480.000000pt" viewBox="0 0 480.000000 480.000000"
 preserveAspectRatio="xMidYMid meet">
<metadata>
Created by potrace 1.11, written by Peter Selinger 2001-2013
</metadata>
<g transform="translate(0.000000,480.000000) scale(0.100000,-0.100000)"
fill="#000000" stroke="none">
<path d="M2540 3662 c0 -7 5 -12 10 -12 6 0 10 -5 10 -11 0 -6 -8 -8 -19 -4
-14 4 -21 0 -26 -13 -3 -11 -26 -29 -51 -39 -25 -11 -45 -23 -45 -26 1 -4 -7
-25 -16 -47 -17 -39 -33 -52 -33 -28 0 24 -14 -4 -15 -30 0 -20 -5 -26 -17
-24 -14 2 -17 -3 -12 -26 4 -17 1 -32 -5 -36 -6 -4 -11 -16 -11 -27 0 -14 -7
-19 -30 -19 -16 0 -30 -5 -30 -11 0 -5 5 -7 10 -4 6 3 15 3 22 -1 8 -5 5 -11
-7 -20 -24 -18 -19 -22 30 -24 69 -3 80 5 99 73 24 85 54 144 99 189 20 21 37
44 37 51 0 20 22 37 48 37 18 0 23 4 18 16 -3 9 -6 18 -6 20 0 2 -8 4 -18 4
-10 0 -23 5 -30 12 -9 9 -12 9 -12 0z"/>
<path d="M2940 3614 c0 -17 22 -14 28 4 2 7 -3 12 -12 12 -9 0 -16 -7 -16 -16z"/>
<path d="M3014 3612 c5 -13 -1 -22 -16 -30 -20 -9 -20 -11 -4 -11 15 -1 16 -4
7 -15 -10 -11 -8 -16 9 -21 30 -10 14 -24 -18 -16 -22 6 -27 13 -27 37 0 27
-3 29 -35 27 -59 -2 -66 -5 -30 -12 23 -4 36 -12 38 -25 3 -16 0 -18 -22 -12
-24 6 -25 5 -20 -26 5 -28 4 -31 -8 -17 -20 25 -75 50 -93 42 -10 -3 -21 0
-25 7 -6 9 -9 9 -15 0 -4 -7 1 -13 14 -17 12 -3 21 -11 21 -17 0 -6 14 -20 30
-29 46 -27 38 -40 -20 -32 -50 7 -100 -10 -100 -35 0 -16 -67 -80 -84 -80 -9
0 -16 -8 -16 -19 0 -30 -11 -52 -22 -45 -6 4 -8 -1 -5 -12 3 -11 9 -50 13 -88
6 -65 6 -69 -12 -61 -11 4 -29 10 -42 13 -14 3 -21 10 -18 18 3 7 1 16 -4 19
-4 3 -10 0 -12 -7 -3 -7 -12 -9 -22 -5 -13 5 -15 13 -10 29 6 19 5 20 -7 7
-28 -30 -41 -61 -30 -72 7 -7 15 -6 25 2 23 19 32 -15 13 -46 -10 -16 -2 -16
24 -3 13 7 19 7 19 0 0 -5 5 -10 10 -10 6 0 10 7 10 15 0 17 26 20 35 5 4 -6
3 -16 -2 -23 -6 -7 -16 -28 -23 -47 -7 -19 -35 -56 -62 -81 -43 -41 -46 -47
-28 -52 31 -8 60 3 60 24 0 11 7 19 16 19 11 0 14 -5 10 -16 -3 -9 -6 -22 -6
-30 0 -8 -4 -14 -10 -14 -5 0 -20 -11 -33 -24 -24 -24 -24 -25 -6 -42 34 -31
24 -42 -40 -41 -35 0 -69 -6 -83 -14 -13 -8 -40 -14 -60 -14 -33 0 -38 -3 -38
-22 0 -13 -3 -23 -8 -23 -4 0 -12 -16 -18 -35 -13 -41 -3 -46 20 -10 19 29 38
33 35 8 -1 -10 -1 -29 0 -43 l1 -25 21 25 20 25 -5 -36 c-7 -40 8 -94 24 -84
5 3 7 25 3 52 -4 34 -3 44 5 39 7 -4 12 -13 12 -21 0 -8 5 -26 10 -41 10 -25
11 -26 30 -9 19 17 40 13 40 -8 1 -16 36 -57 49 -57 5 0 29 -31 52 -70 40 -68
43 -70 80 -70 33 0 41 4 49 25 10 25 57 55 76 48 6 -2 14 5 17 17 3 13 0 20
-10 20 -8 0 -21 6 -28 14 -12 12 -12 15 1 20 8 3 12 2 9 -4 -3 -6 5 -10 18
-10 14 0 30 -6 36 -14 7 -9 40 -17 79 -21 72 -7 122 -22 122 -37 0 -5 26 -20
57 -34 l57 -26 17 21 c17 21 29 16 42 -19 3 -10 6 -6 6 9 1 19 5 23 26 19 13
-3 22 -1 19 3 -6 10 37 12 60 3 11 -4 16 -19 16 -48 0 -42 1 -43 53 -64 28
-12 64 -23 80 -24 15 -1 27 -8 27 -14 0 -17 26 -24 39 -11 7 7 18 7 36 -1 37
-17 42 -15 18 7 -12 11 -24 26 -27 33 -5 10 -7 10 -12 1 -3 -7 -11 -13 -17
-13 -8 0 -7 4 1 12 7 7 12 20 12 30 0 14 6 16 30 11 26 -5 30 -3 30 16 0 12 4
20 9 17 11 -7 36 22 27 32 -4 4 -20 7 -34 7 -20 0 -26 4 -24 18 2 9 -2 17 -8
17 -5 0 -10 -4 -10 -10 0 -5 -4 -10 -10 -10 -5 0 -10 11 -10 25 0 14 -3 26 -7
26 -5 1 -30 2 -58 3 -40 1 -55 7 -78 30 -16 15 -31 26 -34 23 -8 -9 7 -27 23
-27 8 0 14 -4 14 -10 0 -14 -23 -12 -56 5 -16 8 -37 15 -47 15 -10 0 -15 4
-12 10 3 5 0 7 -8 4 -20 -7 -57 47 -57 83 0 21 -9 36 -30 51 -16 12 -34 22
-40 22 -6 0 -13 7 -16 15 -5 11 -22 15 -70 15 -50 0 -64 3 -64 15 0 8 -4 15
-10 15 -5 0 -10 -13 -10 -29 0 -44 -58 -84 -129 -88 -52 -3 -54 -3 -38 15 26
28 22 44 -9 36 -15 -4 -29 -2 -33 4 -8 13 -103 -10 -109 -26 -2 -7 9 -17 24
-22 15 -6 39 -23 53 -38 14 -15 29 -26 34 -24 5 1 6 -2 2 -8 -3 -5 -26 -10
-49 -10 -41 0 -47 4 -114 75 -53 58 -71 72 -76 59 -9 -22 -8 -24 9 -24 19 0
19 -9 0 -34 -15 -19 -15 -19 -15 3 0 45 -58 70 -79 34 -10 -17 -10 -17 -11 0
0 9 4 17 10 17 5 0 7 6 4 14 -4 10 6 16 34 21 21 3 45 5 53 3 19 -4 18 32 -1
45 -12 7 -28 1 -63 -23 -57 -38 -73 -36 -46 6 14 22 33 36 64 45 32 10 45 19
45 32 0 10 17 37 39 59 32 35 45 42 75 41 57 -2 78 -27 70 -82 -6 -39 -5 -44
7 -35 8 7 80 14 167 18 132 6 153 5 158 -9 3 -8 13 -15 21 -15 7 0 13 -6 12
-12 -1 -7 -1 -21 0 -31 1 -16 3 -17 16 -3 8 8 15 22 15 32 0 13 3 14 15 4 8
-6 14 -15 13 -18 -2 -21 4 -22 21 -1 l18 22 32 -22 c17 -12 31 -29 31 -36 0
-8 4 -17 10 -20 6 -3 7 1 4 9 -10 27 10 18 44 -20 31 -34 59 -42 32 -9 -23 27
8 16 35 -12 24 -27 25 -27 25 -5 0 16 6 22 23 22 13 0 28 -5 34 -11 8 -8 13
-7 18 1 4 6 2 17 -4 23 -13 13 -14 27 -2 27 5 0 18 -17 28 -37 20 -42 44 -51
79 -32 18 9 21 15 13 26 -6 7 -8 13 -4 13 5 0 0 9 -10 20 -10 11 -31 20 -46
20 -15 0 -31 5 -34 10 -3 6 -1 10 5 10 7 0 10 7 6 15 -4 11 2 15 28 15 38 0
63 -23 100 -94 14 -27 26 -44 26 -37 0 6 4 11 9 11 13 0 21 -54 8 -62 -21 -13
11 -84 58 -129 25 -24 45 -48 45 -55 0 -19 39 -24 56 -6 12 12 15 28 10 74 -4
32 -4 58 -2 58 3 0 13 -11 22 -25 13 -20 14 -28 4 -40 -27 -33 16 -47 45 -15
15 17 16 24 7 45 -6 14 -16 25 -22 25 -5 0 -10 11 -10 25 0 16 -6 25 -15 25
-8 0 -15 4 -15 9 0 19 -74 53 -106 49 -22 -3 -30 0 -27 8 2 7 -8 15 -26 19
-33 7 -39 22 -18 44 10 11 8 12 -9 7 -17 -5 -25 2 -48 43 -27 50 -47 151 -30
151 15 0 49 -43 46 -57 -2 -9 9 -13 32 -13 19 0 37 -4 41 -10 3 -5 13 -6 22
-3 10 4 14 2 10 -4 -4 -6 14 -13 48 -17 50 -6 108 -30 141 -59 34 -30 44 -37
44 -30 0 7 54 -49 98 -102 12 -14 22 -23 22 -18 0 4 7 -4 15 -20 20 -40 25
-108 9 -125 -8 -7 -14 -29 -14 -48 0 -19 -4 -34 -10 -34 -15 0 -12 -78 4 -130
8 -25 15 -40 15 -35 1 6 7 -1 14 -15 7 -14 22 -29 34 -35 25 -10 29 -55 5 -55
-7 0 -11 3 -9 8 2 4 -7 18 -20 31 l-23 25 -12 -32 c-13 -33 -28 -43 -28 -17 0
19 -62 30 -89 16 -12 -7 -21 -16 -21 -21 0 -6 -6 -10 -13 -10 -7 0 -19 -16
-26 -36 -11 -30 -11 -41 0 -61 7 -14 19 -21 27 -18 7 3 22 5 32 5 22 0 36 56
19 77 -15 18 -6 27 19 19 24 -8 42 -54 42 -107 0 -22 5 -39 10 -39 6 0 10 7
10 16 0 31 42 102 67 113 60 27 83 2 38 -43 -14 -14 -25 -34 -25 -45 0 -11 -4
-23 -10 -26 -5 -3 -10 -17 -10 -30 0 -13 5 -27 10 -30 16 -10 12 -55 -6 -62
-9 -3 -36 -1 -60 4 -53 12 -63 -7 -13 -27 18 -8 28 -18 25 -26 -3 -7 -1 -16 4
-19 6 -4 10 -16 10 -29 0 -12 14 -38 31 -57 l30 -34 -28 -6 -28 -6 28 -7 c15
-5 27 -11 27 -15 0 -3 14 -12 30 -19 28 -13 33 -12 68 16 67 53 76 55 131 31
54 -23 89 -53 72 -63 -6 -4 -8 -26 -4 -51 4 -37 2 -45 -11 -45 -9 0 -16 -4
-16 -10 0 -5 9 -10 19 -10 11 0 23 5 26 10 10 17 44 11 55 -9 5 -11 10 -40 10
-66 0 -38 3 -45 18 -43 17 3 19 -4 7 -34 -5 -13 -2 -15 13 -11 25 6 112 -49
178 -112 l49 -48 3 329 c2 305 1 330 -15 342 -10 7 -17 20 -15 29 3 12 -1 14
-20 8 -13 -4 -40 -9 -61 -10 -45 -3 -70 -21 -47 -35 8 -5 17 -5 20 0 3 4 22
11 43 15 30 6 37 4 37 -9 0 -9 5 -16 10 -16 6 0 10 -5 10 -10 0 -6 -11 -8 -26
-4 -18 5 -25 3 -21 -3 9 -15 -29 -23 -42 -10 -8 8 -11 8 -11 -1 0 -8 -17 -12
-45 -12 -25 0 -53 -5 -63 -11 -14 -9 -26 -7 -55 9 -23 12 -33 22 -25 25 9 3 8
7 -5 12 -12 5 -24 0 -38 -16 -15 -17 -22 -20 -31 -11 -9 9 -8 12 5 12 9 0 17
7 17 15 0 8 -8 15 -19 15 -26 0 -44 23 -29 38 9 9 8 12 -4 12 -9 0 -24 3 -33
6 -10 4 -15 2 -13 -7 5 -22 -33 -17 -46 6 -6 11 -17 24 -23 28 -7 4 -13 17
-13 27 0 14 -7 20 -21 20 -12 0 -18 4 -13 11 4 7 6 40 6 75 -1 43 3 68 13 78
8 8 15 19 15 25 0 5 7 17 16 26 22 22 14 48 -92 295 l-83 195 19 55 c31 92 68
286 84 447 9 83 19 164 22 180 5 24 -4 42 -55 111 -34 45 -64 82 -68 82 -5 0
-9 -23 -10 -51 -1 -28 -6 -56 -11 -62 -5 -7 -13 -27 -17 -45 -8 -39 -50 -66
-65 -42 -7 11 -11 11 -24 1 -12 -10 -13 -18 -5 -33 6 -10 8 -24 5 -31 -2 -7
-5 -5 -5 5 -1 9 -6 18 -11 20 -6 2 -11 24 -12 51 -1 26 -5 47 -9 47 -4 0 -7 6
-6 13 1 36 -4 57 -13 52 -13 -8 -11 -81 6 -180 8 -44 14 -109 14 -144 0 -76
-20 -191 -33 -191 -5 0 -7 -9 -4 -20 3 -12 -1 -24 -11 -29 -14 -8 -15 -12 -4
-22 18 -19 15 -31 -7 -24 -11 3 -22 1 -26 -5 -10 -16 -21 -12 -33 15 -8 18
-16 23 -29 18 -13 -4 -11 0 5 13 22 18 24 29 25 107 1 48 1 87 0 87 -2 0 -12
-9 -23 -20 -24 -24 -43 -25 -60 -5 -7 8 -19 15 -26 15 -8 0 -14 7 -14 15 0 9
-10 20 -22 24 -22 9 -22 9 -3 17 37 14 34 27 -13 58 -26 16 -51 30 -57 31 -5
0 -11 11 -13 25 -2 22 -1 23 8 8 16 -27 33 -22 26 6 -3 14 -2 28 4 31 15 9 12
35 -4 35 -8 0 -21 -6 -28 -13 -11 -11 -16 -12 -25 -1 -7 6 -34 17 -61 23 -61
13 -142 55 -133 68 3 6 15 13 26 15 18 4 16 7 -12 24 -18 10 -33 24 -33 30 0
15 28 26 35 14 4 -6 18 -10 33 -10 l27 1 -24 13 c-16 9 -20 15 -12 21 9 5 8
12 -5 26 -20 22 -36 25 -28 5 8 -22 -11 -27 -42 -11 -31 16 -93 11 -107 -9
-10 -15 -50 32 -43 51 3 7 0 13 -7 14 -110 7 -154 38 -124 85 4 7 0 15 -9 18
-24 9 -26 8 -20 -12z m296 -176 c0 -10 -7 -12 -22 -8 -21 5 -21 6 -2 13 10 4
20 8 22 8 1 1 2 -5 2 -13z m17 -78 c13 -15 13 -16 -6 -11 -15 4 -21 13 -20 32
0 15 3 20 6 11 3 -8 12 -23 20 -32z m-363 -192 c40 -17 57 -37 24 -28 -13 3
-33 12 -45 19 -14 10 -34 12 -60 8 -28 -5 -34 -4 -23 4 21 15 65 14 104 -3z
m-127 -22 c-3 -3 -12 -4 -19 -1 -8 3 -5 6 6 6 11 1 17 -2 13 -5z m-64 -67 c-3
-5 -9 -3 -14 4 -4 7 -5 17 -2 22 3 5 9 3 14 -4 4 -7 5 -17 2 -22z m37 23 c0
-5 -4 -10 -10 -10 -5 0 -10 5 -10 10 0 6 5 10 10 10 6 0 10 -4 10 -10z m109
-5 c10 -11 -6 -13 -51 -8 -28 3 -45 10 -42 15 6 9 82 3 93 -7z m-179 -25 c17
-26 11 -29 -30 -13 -22 9 -40 19 -40 22 0 13 61 5 70 -9z m720 -18 c34 -17 79
-60 80 -76 0 -4 -13 6 -29 23 -37 40 -69 51 -142 51 -63 0 -81 16 -26 23 43 6
75 0 117 -21z m-310 8 c0 -5 -6 -10 -14 -10 -8 0 -18 5 -21 10 -3 6 3 10 14
10 12 0 21 -4 21 -10z m-105 -20 c16 -7 14 -8 -12 -7 -18 1 -33 5 -33 10 0 9
19 8 45 -3z m150 -24 l30 -16 -52 2 c-49 3 -52 1 -47 -17 l5 -20 -15 20 c-8
11 -22 27 -31 36 -13 13 -13 18 -3 21 20 7 80 -7 113 -26z m-353 -7 c26 -1 28
-3 9 -6 -39 -8 -91 6 -91 24 0 14 2 14 25 -1 13 -9 39 -17 57 -17z m247 -13
c7 -8 8 -17 3 -20 -6 -3 -15 1 -22 9 -18 22 -29 19 -40 -10 -8 -22 -13 -24
-31 -15 -15 9 -24 8 -34 0 -8 -7 -20 -10 -26 -8 -6 2 0 12 15 22 21 13 31 15
41 6 11 -9 17 -7 27 9 15 24 50 28 67 7z m291 5 c0 -5 9 -13 21 -16 39 -13 13
-14 -28 -2 -54 16 -64 27 -25 27 18 0 32 -4 32 -9z m-145 -32 c4 -6 5 -12 2
-15 -7 -7 -37 7 -37 17 0 13 27 11 35 -2z m312 -31 c-3 -8 -6 -5 -6 6 -1 11 2
17 5 13 3 -3 4 -12 1 -19z m239 1 c3 -5 -8 -9 -25 -9 -22 0 -29 4 -25 14 5 14
40 11 50 -5z m-893 4 c-13 -2 -35 -2 -50 0 -16 2 -5 4 22 4 28 0 40 -2 28 -4z
m-78 -13 c3 -5 1 -10 -4 -10 -6 0 -11 5 -11 10 0 6 2 10 4 10 3 0 8 -4 11 -10z
m300 -14 c12 5 16 3 13 -6 -2 -7 -16 -15 -31 -17 -24 -3 -27 0 -27 24 1 26 2
26 14 10 9 -11 20 -15 31 -11z m148 -15 c10 -17 17 -33 16 -38 -4 -21 4 -33
34 -52 26 -17 28 -21 11 -21 -33 0 -51 21 -73 83 -21 62 -16 75 12 28z m317
-3 c0 -5 -4 -8 -10 -8 -5 0 -10 10 -10 23 0 18 2 19 10 7 5 -8 10 -18 10 -22z
m-520 12 c0 -5 -5 -10 -11 -10 -5 0 -7 5 -4 10 3 6 8 10 11 10 2 0 4 -4 4 -10z
m95 1 c3 -5 1 -12 -5 -16 -5 -3 -10 1 -10 9 0 18 6 21 15 7z m190 -11 c3 -5 1
-10 -4 -10 -6 0 -11 5 -11 10 0 6 2 10 4 10 3 0 8 -4 11 -10z m-492 -7 c-7 -2
-19 -2 -25 0 -7 3 -2 5 12 5 14 0 19 -2 13 -5z m501 -54 c-8 -14 -34 -10 -34
5 0 9 7 12 20 9 11 -3 17 -9 14 -14z m-960 -245 c3 -8 2 -12 -4 -9 -6 3 -10
10 -10 16 0 14 7 11 14 -7z m266 -156 c0 -10 -13 -10 -34 -2 -9 3 -16 12 -16
19 0 10 5 11 25 2 14 -7 25 -15 25 -19z m659 -47 c13 -10 19 -21 14 -24 -6 -4
-23 5 -39 18 -34 29 -12 35 25 6z m180 -68 c12 -34 12 -44 2 -57 -17 -21 -31
-20 -31 1 0 14 -5 12 -27 -8 -19 -18 -25 -19 -20 -7 3 10 2 20 -3 23 -6 4 -10
20 -10 37 0 23 4 29 16 24 9 -3 19 -6 24 -6 5 0 12 -9 15 -20 3 -11 11 -20 16
-20 6 0 7 5 4 10 -4 6 -10 24 -15 41 -14 46 11 31 29 -18z m38 -45 c-3 -8 -6
-5 -6 6 -1 11 2 17 5 13 3 -3 4 -12 1 -19z m418 -268 c-4 -6 -1 -17 5 -25 10
-12 9 -15 -9 -15 -11 0 -21 -4 -21 -10 0 -5 -5 -10 -11 -10 -6 0 -9 8 -7 18 2
9 10 16 16 15 7 -2 12 6 12 17 0 11 5 20 11 20 5 0 7 -5 4 -10z"/>
<path d="M2705 3560 c3 -5 10 -10 16 -10 5 0 9 5 9 10 0 6 -7 10 -16 10 -8 0
-12 -4 -9 -10z"/>
<path d="M3220 3551 c0 -6 -7 -11 -15 -11 -8 0 -15 -6 -15 -14 0 -8 7 -16 15
-20 9 -3 15 0 15 9 0 7 10 15 23 17 12 2 22 8 22 13 0 6 -10 11 -22 13 -13 2
-23 -1 -23 -7z"/>
<path d="M3890 3446 c0 -14 4 -27 9 -31 12 -7 25 31 16 45 -11 18 -25 10 -25
-14z"/>
<path d="M4030 3436 c0 -2 7 -9 15 -16 13 -11 14 -10 9 4 -5 14 -24 23 -24 12z"/>
<path d="M3445 3380 c3 -5 8 -10 11 -10 2 0 4 5 4 10 0 6 -5 10 -11 10 -5 0
-7 -4 -4 -10z"/>
<path d="M3396 3322 c25 -23 194 -43 194 -23 0 5 -19 9 -42 9 -24 1 -63 5 -88
11 -55 13 -77 14 -64 3z"/>
<path d="M3718 3323 c7 -3 16 -2 19 1 4 3 -2 6 -13 5 -11 0 -14 -3 -6 -6z"/>
<path d="M4022 3310 c0 -14 2 -19 5 -12 2 6 2 18 0 25 -3 6 -5 1 -5 -13z"/>
<path d="M2545 3140 c3 -5 11 -10 16 -10 6 0 7 5 4 10 -3 6 -11 10 -16 10 -6
0 -7 -4 -4 -10z"/>
<path d="M3702 3115 c21 -32 48 -47 48 -26 0 16 -41 61 -56 61 -11 0 -9 -8 8
-35z"/>
<path d="M2398 3093 c7 -3 16 -2 19 1 4 3 -2 6 -13 5 -11 0 -14 -3 -6 -6z"/>
<path d="M170 3050 c0 -5 5 -10 11 -10 5 0 7 5 4 10 -3 6 -8 10 -11 10 -2 0
-4 -4 -4 -10z"/>
<path d="M201 2994 c15 -16 18 -32 16 -72 -2 -29 -7 -55 -10 -59 -4 -3 0 -14
9 -24 14 -16 14 -19 -5 -38 -12 -12 -16 -23 -10 -26 13 -9 1 -107 -17 -126 -8
-9 -12 -24 -8 -33 4 -11 1 -16 -11 -16 -11 0 -16 -7 -15 -22 4 -47 0 -58 -21
-58 -17 0 -19 -3 -10 -14 8 -10 9 -21 1 -42 -8 -21 -13 -25 -19 -15 -6 10 -10
10 -16 2 -4 -7 -1 -18 5 -26 10 -12 9 -15 -9 -15 -25 0 -26 -6 -5 -28 12 -12
13 -17 4 -20 -6 -2 -17 1 -23 7 -19 19 -28 12 -15 -10 10 -17 10 -23 1 -26 -7
-3 -13 -11 -13 -19 0 -8 -6 -11 -15 -8 -8 4 -15 1 -15 -5 0 -6 5 -11 10 -11 6
0 10 -7 10 -15 0 -8 -5 -15 -10 -15 -7 0 -10 -140 -10 -420 1 -261 5 -418 11
-415 5 4 9 1 9 -4 0 -6 -4 -11 -10 -11 -7 0 -10 -208 -10 -603 0 -572 1 -605
18 -620 10 -10 23 -17 29 -17 20 0 82 -82 89 -116 3 -19 15 -39 25 -44 19 -11
576 -14 603 -4 9 3 16 13 16 20 0 43 95 133 234 224 30 19 69 18 109 -2 13 -7
32 3 85 45 113 91 155 140 243 287 57 96 64 110 87 197 l20 71 -22 6 c-11 3
-31 6 -43 6 -32 0 -30 34 4 96 34 63 79 107 144 139 103 53 114 82 70 179 -23
52 -32 90 -40 177 -6 62 -8 116 -5 121 4 5 8 28 9 51 6 79 73 190 100 167 9
-8 15 -8 20 0 3 5 -4 14 -17 19 -13 6 -16 10 -8 11 13 0 13 1 0 11 -11 8 -12
12 -2 16 17 7 15 24 -3 17 -14 -6 -75 50 -75 68 0 17 20 7 36 -17 18 -28 27
-30 46 -12 19 17 56 37 68 37 5 0 10 -8 10 -17 0 -15 2 -16 9 -4 7 11 2 22
-15 38 -32 29 -58 31 -49 3 5 -14 2 -20 -10 -20 -12 0 -15 6 -10 20 6 18 2 20
-34 20 -23 0 -41 4 -41 10 0 5 -7 7 -15 4 -21 -8 -19 -34 2 -34 12 0 14 -3 6
-11 -8 -8 -17 -6 -34 8 -50 40 -69 63 -69 83 0 22 21 50 39 50 21 0 22 22 2
36 -12 8 -21 19 -21 25 0 19 47 8 70 -16 17 -18 34 -25 62 -25 21 0 38 5 38
10 0 6 -4 10 -10 10 -5 0 -10 7 -10 15 0 8 -4 15 -10 15 -5 0 -10 -7 -10 -15
0 -8 -4 -15 -10 -15 -5 0 -10 4 -10 8 0 5 -8 18 -17 29 -13 15 -26 19 -49 16
-47 -7 -51 14 -4 22 22 4 40 12 41 18 2 26 -3 102 -7 106 -8 9 -24 -15 -30
-47 -6 -27 -4 -31 10 -26 9 3 16 1 16 -5 0 -6 -7 -11 -15 -11 -8 0 -15 -7 -15
-15 0 -8 -4 -15 -10 -15 -5 0 -10 15 -9 33 0 36 -18 164 -25 175 -8 13 31 222
44 237 10 13 5 18 -31 34 -24 11 -89 31 -144 46 -55 14 -112 30 -126 36 -27
11 -60 0 -84 -28 -5 -6 -34 -14 -62 -17 -29 -3 -77 -8 -105 -12 -29 -3 -60 -8
-68 -11 -8 -3 -39 -7 -69 -9 -41 -3 -60 1 -81 16 -22 16 -45 20 -108 20 -106
0 -120 11 -162 132 -17 51 -36 99 -42 105 -19 24 -84 35 -235 42 l-152 6 20
-21z m-61 -1564 c0 -5 -7 -10 -16 -10 -8 0 -12 5 -9 10 3 6 10 10 16 10 5 0 9
-4 9 -10z m250 -382 c0 -19 -2 -20 -10 -8 -13 19 -13 30 0 30 6 0 10 -10 10
-22z m-173 -204 c-3 -3 -12 -4 -19 -1 -8 3 -5 6 6 6 11 1 17 -2 13 -5z m640
-90 c6 -14 9 -32 6 -40 -3 -9 2 -14 16 -14 19 0 20 -3 11 -21 -7 -11 -9 -32
-6 -45 4 -14 2 -24 -4 -24 -5 0 -10 -9 -10 -20 0 -12 -7 -20 -16 -20 -13 0
-15 -7 -11 -36 4 -25 2 -37 -9 -41 -7 -3 -14 -12 -14 -20 0 -11 -7 -13 -25 -9
-29 7 -32 1 -10 -20 21 -21 19 -36 -7 -64 -22 -23 -32 -60 -16 -60 20 0 6 -20
-14 -21 -22 0 -22 -1 2 -11 14 -6 52 -14 85 -19 43 -6 34 -6 -30 -1 -136 10
-316 7 -352 -5 -46 -16 -50 0 -14 46 17 21 31 42 31 47 0 4 6 15 14 23 7 9 24
36 37 61 43 81 101 161 114 156 16 -6 31 5 60 44 23 32 24 35 8 42 -17 6 -17
7 1 7 14 1 17 6 12 24 -4 16 1 26 14 35 16 10 20 10 20 -2 0 -8 -6 -16 -12
-19 -7 -2 -10 -8 -6 -12 12 -13 38 4 38 25 0 14 6 20 17 18 10 -2 18 3 19 10
2 20 3 20 22 16 9 -3 22 -16 29 -30z m-667 16 c0 -5 -5 -10 -11 -10 -5 0 -7 5
-4 10 3 6 8 10 11 10 2 0 4 -4 4 -10z m240 -195 c0 -5 -5 -3 -10 5 -5 8 -10
20 -10 25 0 6 5 3 10 -5 5 -8 10 -19 10 -25z"/>
<path d="M805 510 c-3 -5 -1 -10 4 -10 6 0 11 5 11 10 0 6 -2 10 -4 10 -3 0
-8 -4 -11 -10z"/>
<path d="M731 414 c0 -11 3 -14 6 -6 3 7 2 16 -1 19 -3 4 -6 -2 -5 -13z"/>
<path d="M706 383 c-14 -14 -5 -33 17 -32 12 0 16 3 9 6 -6 2 -10 9 -7 13 7
11 -10 22 -19 13z"/>
<path d="M718 323 c7 -3 16 -2 19 1 4 3 -2 6 -13 5 -11 0 -14 -3 -6 -6z"/>
<path d="M1960 2998 c0 -7 -12 -22 -27 -34 -24 -20 -26 -25 -16 -43 7 -11 10
-27 7 -35 -3 -8 -1 -17 5 -21 6 -3 11 0 11 8 0 17 45 38 65 31 9 -4 24 1 35
11 11 10 26 14 38 10 25 -7 32 3 21 33 -6 15 -17 22 -35 22 -19 0 -25 4 -20
15 6 17 -7 19 -34 5 -13 -7 -21 -7 -25 0 -9 14 -25 13 -25 -2z"/>
<path d="M1884 2894 c3 -9 6 -18 6 -20 0 -2 5 -4 10 -4 6 0 10 9 10 20 0 12
-7 20 -16 20 -11 0 -14 -5 -10 -16z"/>
<path d="M2065 2889 c-4 -6 2 -13 14 -16 31 -8 26 -17 -16 -30 -29 -9 -40 -9
-45 0 -5 7 -5 -3 -2 -20 5 -26 3 -33 -10 -33 -9 0 -16 -8 -16 -19 0 -10 -7
-21 -15 -25 -22 -8 -18 -36 4 -36 11 0 23 -9 26 -21 6 -17 9 -19 16 -8 6 10 9
11 9 2 0 -31 87 6 104 44 15 31 73 68 89 55 7 -6 20 -10 28 -9 24 4 100 67 93
78 -3 5 -10 7 -15 3 -11 -7 -196 24 -221 37 -22 12 -35 11 -43 -2z m175 -79
c0 -5 -4 -10 -10 -10 -5 0 -10 5 -10 10 0 6 5 10 10 10 6 0 10 -4 10 -10z"/>
<path d="M2620 2823 c-22 -5 -60 -37 -60 -52 0 -14 32 -51 44 -51 20 0 66 44
66 62 0 22 -11 48 -19 47 -3 -1 -17 -4 -31 -6z"/>
<path d="M1786 2743 c-15 -16 -3 -48 36 -89 23 -24 48 -44 57 -44 14 -1 14 -2
-1 -14 -29 -21 -22 -38 15 -34 26 2 31 7 29 23 -2 11 -10 24 -18 28 -31 18
-94 90 -94 107 0 20 -13 33 -24 23z"/>
<path d="M1910 2708 c0 -10 4 -18 9 -18 5 0 12 -12 14 -27 4 -28 4 -28 6 -2 0
14 -6 34 -14 45 -13 17 -14 17 -15 2z"/>
<path d="M1950 2624 c-13 -34 -13 -34 13 -34 31 0 35 5 29 35 -6 32 -30 32
-42 -1z"/>
<path d="M2604 2638 c-3 -5 1 -11 9 -14 24 -9 80 0 85 13 4 14 -86 15 -94 1z"/>
<path d="M3670 2640 c0 -5 5 -10 11 -10 5 0 7 5 4 10 -3 6 -8 10 -11 10 -2 0
-4 -4 -4 -10z"/>
<path d="M2550 2635 c0 -8 51 -55 60 -55 18 0 10 22 -9 27 -11 3 -22 11 -25
19 -5 13 -26 20 -26 9z"/>
<path d="M3900 2570 c0 -5 5 -10 10 -10 6 0 10 5 10 10 0 6 -4 10 -10 10 -5 0
-10 -4 -10 -10z"/>
<path d="M3216 2544 c-7 -19 10 -44 30 -44 8 0 14 -4 14 -10 0 -5 9 -10 21
-10 16 0 20 -4 14 -17 -4 -13 -3 -15 5 -7 13 13 -29 96 -46 90 -6 -3 -16 0
-21 5 -7 7 -13 5 -17 -7z"/>
<path d="M3300 2539 c0 -20 11 -32 48 -51 53 -28 36 1 -30 51 -15 11 -18 11
-18 0z"/>
<path d="M3460 2530 c0 -5 5 -10 11 -10 5 0 7 5 4 10 -3 6 -8 10 -11 10 -2 0
-4 -4 -4 -10z"/>
<path d="M3908 2533 c7 -3 16 -2 19 1 4 3 -2 6 -13 5 -11 0 -14 -3 -6 -6z"/>
<path d="M3390 2521 c0 -5 7 -12 16 -15 22 -9 24 -8 24 9 0 8 -9 15 -20 15
-11 0 -20 -4 -20 -9z"/>
<path d="M3940 2469 c0 -48 1 -51 14 -34 8 12 11 26 6 35 -4 8 -5 20 -3 27 2
6 -1 14 -6 18 -7 4 -11 -12 -11 -46z"/>
<path d="M2108 2436 c-11 -15 -13 -27 -7 -37 8 -12 12 -11 24 5 16 21 20 56 8
56 -5 0 -15 -11 -25 -24z"/>
<path d="M3598 2447 c8 -9 12 -22 9 -29 -2 -7 2 -21 11 -30 14 -17 13 -18 -9
-19 -22 0 -22 -1 -4 -9 29 -11 41 5 26 36 -9 20 -9 30 0 40 7 9 8 14 1 14 -6
0 -19 3 -29 7 -16 6 -16 5 -5 -10z"/>
<path d="M4017 2449 c7 -7 15 -10 18 -7 3 3 -2 9 -12 12 -14 6 -15 5 -6 -5z"/>
<path d="M2223 2410 c0 -25 2 -35 4 -22 2 12 2 32 0 45 -2 12 -4 2 -4 -23z"/>
<path d="M2366 2360 c-10 -51 -7 -70 9 -70 8 0 15 5 15 10 0 6 8 10 18 10 16
1 16 1 0 11 -10 5 -18 18 -18 27 0 9 -4 23 -9 30 -6 10 -10 4 -15 -18z"/>
<path d="M2930 2360 c0 -5 9 -10 21 -10 11 0 17 5 14 10 -3 6 -13 10 -21 10
-8 0 -14 -4 -14 -10z"/>
<path d="M2308 2340 c-7 -24 -3 -38 8 -28 3 4 4 17 2 30 l-3 23 -7 -25z"/>
<path d="M3634 2336 c-8 -22 3 -33 18 -18 9 9 9 15 0 24 -9 9 -13 7 -18 -6z"/>
<path d="M2260 2311 c0 -5 -13 -11 -30 -14 -16 -4 -30 -11 -30 -17 0 -13 27
-13 43 0 7 6 21 17 32 25 18 13 18 14 3 15 -10 0 -18 -4 -18 -9z"/>
<path d="M2814 2295 c-7 -30 3 -95 16 -95 5 0 4 14 -2 30 -6 17 -8 44 -4 60 7
36 -1 40 -10 5z"/>
<path d="M3925 2300 c-5 -8 -20 -10 -41 -7 -26 4 -32 2 -27 -9 3 -9 -2 -14
-15 -14 -38 0 -122 -33 -122 -48 0 -11 3 -12 14 -3 11 9 20 9 35 2 26 -15 31
-14 25 4 -6 16 37 32 55 20 6 -3 11 1 11 10 0 9 3 15 8 13 4 -3 22 -11 40 -18
42 -19 41 -30 -5 -30 -56 0 -33 -10 26 -11 50 -2 80 9 52 19 -7 2 -21 22 -31
44 -11 26 -20 36 -25 28z"/>
<path d="M2093 2263 c14 -46 20 -51 63 -47 19 1 32 -1 29 -6 -3 -4 5 -6 17 -2
15 4 19 2 14 -7 -9 -15 26 -51 49 -51 8 0 15 -4 15 -10 0 -5 7 -10 15 -10 16
0 29 -25 39 -71 5 -21 13 -28 38 -32 18 -3 52 -11 75 -17 23 -7 55 -9 70 -5
l28 7 -39 34 c-22 19 -50 34 -63 34 -12 0 -23 5 -23 10 0 6 4 10 9 10 12 0
-14 54 -34 70 -8 7 -15 19 -15 26 0 8 -4 14 -10 14 -5 0 -10 -5 -10 -11 0 -5
-4 -8 -9 -5 -12 8 -22 -20 -14 -41 6 -17 6 -17 -10 -1 -9 9 -17 24 -17 32 0 9
-4 16 -9 16 -5 0 -17 3 -27 7 -11 4 -15 3 -11 -4 5 -7 0 -9 -14 -6 -12 4 -18
11 -15 20 7 16 -31 33 -75 33 -19 0 -29 5 -29 15 0 8 -7 15 -16 15 -8 0 -12 5
-9 10 3 6 0 10 -8 10 -13 0 -13 -6 -4 -37z m294 -165 c41 -39 25 -53 -21 -17
-14 11 -24 25 -21 30 9 13 16 11 42 -13z m68 -48 c3 -5 -1 -10 -9 -10 -8 0
-18 5 -21 10 -3 6 1 10 9 10 8 0 18 -4 21 -10z"/>
<path d="M2500 2264 c6 -16 7 -39 2 -58 -15 -53 8 -79 29 -33 8 18 17 23 35
19 32 -6 30 9 -6 44 -16 16 -30 35 -30 42 0 6 -9 12 -20 12 -17 0 -18 -3 -10
-26z"/>
<path d="M2428 2273 c-22 -5 -24 -33 -2 -33 8 0 12 -5 8 -11 -6 -10 11 -28 26
-29 9 0 5 59 -5 68 -5 5 -18 7 -27 5z"/>
<path d="M2596 2261 c-9 -15 23 -36 35 -24 8 8 5 14 -9 22 -12 6 -23 7 -26 2z"/>
<path d="M2630 2210 c0 -5 7 -10 15 -10 8 0 15 5 15 10 0 6 -7 10 -15 10 -8 0
-15 -4 -15 -10z"/>
<path d="M3180 2181 c45 -38 35 -49 -14 -16 -47 32 -58 32 -24 0 15 -14 32
-25 38 -25 5 0 10 -4 10 -10 0 -17 -223 -16 -268 1 -17 6 -21 6 -16 -3 5 -7 0
-9 -14 -6 -12 3 -23 1 -25 -5 -2 -7 -11 -7 -23 -2 -10 4 -28 10 -39 12 -11 2
-21 8 -23 13 -8 24 -24 8 -19 -19 3 -15 2 -32 -3 -37 -5 -5 -7 -19 -4 -32 5
-18 13 -22 45 -22 39 0 39 0 39 -39 0 -62 32 -64 34 -2 1 24 4 26 36 23 19 -2
42 -10 51 -18 8 -8 29 -14 45 -14 38 0 56 -13 54 -36 -4 -36 0 -55 11 -49 5 4
9 21 7 38 -3 28 0 32 25 35 15 2 27 8 27 13 0 6 4 7 10 4 5 -3 23 1 39 10 20
10 37 12 53 6 25 -9 48 -4 48 10 0 5 -12 14 -26 19 -32 12 -22 30 16 30 18 0
34 -8 44 -21 11 -16 22 -20 40 -17 15 3 31 -1 38 -9 6 -8 17 -12 25 -9 8 3 13
-2 13 -12 0 -9 11 -29 25 -44 28 -30 33 -53 11 -45 -8 3 -17 1 -19 -6 -3 -9
-8 -8 -21 2 -18 15 -78 17 -131 4 l-30 -7 30 -6 30 -7 -39 -8 c-27 -5 -40 -4
-46 5 -6 9 -13 7 -29 -9 -11 -11 -27 -21 -35 -21 -17 0 -31 -35 -27 -70 l3
-25 -24 28 c-13 15 -26 27 -30 27 -11 0 -15 -37 -6 -55 7 -12 7 -20 -1 -24
-19 -12 24 -43 63 -45 41 -2 48 15 14 32 -22 10 -21 11 9 11 21 1 33 7 36 19
4 13 5 11 6 -5 1 -25 4 -26 71 -27 64 -1 74 12 48 63 -11 23 -29 46 -41 52
-15 9 -17 13 -6 19 16 11 49 -6 49 -24 0 -8 8 -16 18 -18 14 -4 18 1 20 25 3
40 10 49 32 42 10 -3 28 0 39 7 16 10 23 10 33 0 6 -6 20 -12 29 -12 23 0 99
74 99 97 0 13 2 15 9 5 6 -10 15 -9 44 8 21 12 38 29 38 38 2 26 18 -59 18
-97 1 -29 -1 -32 -14 -21 -14 11 -19 7 -16 -13 1 -4 -9 -5 -21 -2 -32 7 -57
-10 -40 -27 10 -10 17 -10 32 0 31 19 40 14 40 -21 0 -21 7 -36 20 -45 29 -18
25 -35 -6 -29 -24 4 -25 3 -20 -28 7 -33 6 -33 -41 -43 -43 -10 -76 -6 -45 5
6 3 12 11 12 19 0 8 -6 11 -17 7 -10 -4 -14 -2 -10 4 9 14 -39 53 -64 53 -9 0
-20 8 -22 18 -4 15 -5 15 -6 -2 -1 -15 -6 -17 -32 -12 -26 5 -30 3 -25 -10 3
-9 6 -18 6 -20 0 -2 16 -4 35 -4 30 0 35 -3 35 -24 0 -14 8 -31 18 -38 10 -7
21 -21 25 -30 7 -21 37 -24 56 -5 10 10 11 9 6 -5 -4 -9 -13 -19 -21 -22 -20
-8 -17 -23 6 -29 12 -3 20 -14 20 -27 l0 -22 -18 22 -18 22 -28 -28 c-21 -22
-26 -35 -22 -56 5 -24 1 -30 -20 -38 -20 -8 -24 -15 -19 -33 4 -12 16 -30 28
-40 l20 -18 -33 -30 c-18 -17 -38 -28 -46 -25 -7 3 -14 0 -16 -5 -2 -6 -40
-15 -84 -20 -64 -8 -89 -7 -123 4 -41 15 -42 15 -35 -7 11 -37 -10 -7 -26 37
-21 56 -50 63 -50 12 0 -29 9 -45 50 -87 53 -54 59 -73 14 -44 -34 23 -42 14
-16 -19 11 -14 20 -40 20 -59 0 -41 -39 -101 -55 -85 -7 7 -15 6 -24 -4 -13
-12 -16 -12 -28 0 -8 9 -23 12 -37 9 -25 -7 -29 0 -18 28 6 17 34 23 34 7 0
-4 12 -8 28 -7 16 1 26 6 24 14 -1 7 2 21 8 31 23 43 -47 123 -90 102 -8 -5
-30 -9 -48 -9 -19 0 -44 -8 -57 -16 -31 -20 -39 -20 -31 0 4 12 1 14 -13 9
-11 -3 -23 0 -27 6 -5 9 -2 10 9 6 10 -4 17 -1 17 5 0 6 3 9 6 5 3 -3 12 0 19
6 10 9 10 17 2 32 -6 11 -10 28 -8 38 1 9 -3 17 -8 17 -6 0 -11 6 -11 14 0 8
-11 17 -24 20 -13 3 -26 15 -29 26 -7 26 5 26 28 0 10 -11 20 -18 23 -15 3 3
14 -3 24 -12 17 -15 20 -15 35 0 15 15 13 19 -21 53 -25 25 -42 35 -56 31 -11
-3 -20 -1 -20 4 0 5 -9 9 -20 9 -12 0 -20 -7 -20 -17 0 -13 -3 -14 -12 -5 -21
21 -38 13 -38 -18 0 -34 -22 -49 -45 -30 -8 6 -19 9 -25 5 -5 -3 -16 -3 -22 2
-14 8 -19 9 -55 11 -15 2 -21 7 -17 17 4 9 0 15 -10 15 -9 0 -16 5 -16 10 0 6
12 10 26 10 14 0 34 5 45 11 16 8 25 7 38 -5 25 -23 33 -20 29 11 -2 15 2 28
10 30 6 3 12 0 12 -6 0 -6 4 -11 10 -11 5 0 7 7 4 15 -4 8 -11 15 -16 15 -6 0
-16 8 -23 17 -7 9 -22 17 -34 18 -23 2 -27 -5 -10 -22 22 -22 -37 -53 -101
-54 -59 0 -150 44 -150 73 0 9 -5 29 -12 45 -6 15 -12 33 -12 38 -1 14 -75 18
-91 5 -8 -6 -23 -9 -34 -5 -10 3 -22 1 -25 -4 -6 -10 123 -101 142 -101 5 0
15 -7 22 -15 7 -8 20 -15 30 -15 9 0 25 -9 35 -20 10 -11 26 -20 36 -20 19 0
89 -63 89 -80 0 -13 34 -30 60 -30 23 0 50 -22 50 -40 0 -6 -8 -10 -17 -8 -10
2 -16 7 -15 12 5 13 -19 25 -35 19 -10 -4 -12 -14 -7 -35 6 -29 5 -30 -27 -24
-19 3 -28 3 -21 0 6 -3 12 -12 12 -20 0 -8 5 -14 10 -14 17 0 11 -29 -10 -50
-12 -12 -20 -33 -20 -52 1 -18 0 -60 0 -93 -1 -33 -1 -83 0 -112 1 -29 -4 -61
-10 -73 -6 -11 -8 -25 -4 -31 4 -6 0 -15 -7 -20 -10 -6 -11 -9 -1 -9 6 0 12
-7 12 -16 0 -10 -6 -14 -15 -10 -9 3 -15 0 -15 -8 0 -8 5 -16 11 -18 8 -3 7
-17 -3 -47 -11 -32 -17 -39 -22 -26 -3 9 -2 24 3 33 6 11 4 26 -5 44 -9 17
-10 28 -4 28 5 0 10 5 10 11 0 6 -7 9 -14 6 -10 -4 -13 -1 -9 9 3 7 0 14 -7
14 -6 0 -18 6 -26 14 -7 8 -19 16 -26 18 -18 6 1 28 24 28 20 0 21 1 3 20 -10
11 -26 20 -37 20 -10 0 -18 5 -18 11 0 7 12 8 33 4 31 -7 32 -7 14 13 -11 12
-37 22 -68 26 -41 6 -48 10 -40 20 8 10 7 17 -4 26 -8 7 -15 23 -15 36 0 21
-4 23 -24 18 -16 -4 -28 0 -37 13 -19 24 -72 53 -101 54 -12 0 -17 3 -10 6 50
20 -74 42 -133 23 -29 -10 -40 -9 -58 3 -13 8 -32 16 -42 19 -11 2 -20 10 -20
18 0 8 -7 15 -15 15 -9 0 -14 -7 -12 -17 2 -11 -3 -18 -13 -18 -8 0 -15 5 -15
10 0 6 -9 10 -19 10 -10 0 -22 7 -25 16 -8 22 -8 22 12 27 13 4 13 5 -4 6 -12
0 -28 10 -35 22 -13 19 -14 17 -12 -28 2 -43 1 -45 -6 -15 -13 49 -18 48 -19
-2 -1 -25 3 -48 8 -51 5 -3 6 -13 3 -21 -5 -13 -1 -15 15 -9 16 5 22 2 22 -9
0 -11 10 -16 28 -17 l27 -1 -27 -10 c-37 -13 -35 -28 3 -28 27 0 75 -29 127
-78 67 -62 243 -144 357 -166 92 -18 125 -24 142 -25 20 -1 40 -51 47 -114 3
-32 13 -74 21 -94 29 -70 14 -97 -88 -158 -44 -25 -127 -113 -188 -199 -39
-55 -107 -184 -120 -228 l-8 -28 719 0 c475 0 721 3 725 10 8 13 80 50 97 50
7 0 -4 -11 -25 -24 -20 -12 -40 -26 -44 -29 -3 -4 148 -7 336 -7 295 0 340 2
328 14 -8 8 -20 29 -27 46 -11 27 -11 33 0 40 8 5 17 7 21 4 4 -2 45 3 91 12
73 13 86 19 103 44 14 20 31 31 57 35 22 4 42 15 48 25 13 24 13 40 0 20 -21
-32 -9 12 20 77 17 36 30 75 30 85 0 11 9 22 20 25 15 4 18 11 13 34 -3 18 -1
29 6 29 6 0 11 10 12 23 0 12 3 16 6 9 8 -20 23 -3 23 28 0 15 7 30 15 34 17
6 21 56 4 56 -24 0 -41 30 -33 58 11 41 12 221 0 219 -5 -1 -11 7 -13 18 -8
40 -13 49 -24 38 -7 -7 -5 -31 5 -77 25 -107 18 -176 -19 -176 -8 0 -18 -7
-23 -16 -6 -11 -14 -14 -23 -8 -8 5 -23 9 -34 9 -14 0 -21 9 -26 30 l-6 30
-11 -28 c-15 -36 -36 -25 -28 14 8 41 -4 90 -23 96 -9 3 -25 9 -36 13 -11 5
-36 11 -55 14 l-36 6 0 -57 c-1 -34 -6 -59 -13 -61 -7 -2 -8 -8 -3 -15 17 -23
21 -57 6 -57 -8 0 -14 5 -14 11 0 6 -7 9 -15 6 -16 -7 -31 33 -42 113 -9 63
-28 90 -65 90 -40 0 -98 -36 -98 -61 0 -10 -5 -19 -10 -19 -6 0 -10 -6 -9 -12
6 -28 -15 -83 -37 -101 -13 -10 -24 -29 -24 -42 0 -22 -40 -106 -61 -129 -5
-6 -9 -20 -9 -33 0 -12 -9 -37 -20 -55 -25 -42 -25 -79 0 -108 11 -13 20 -31
20 -42 0 -10 9 -27 20 -38 11 -11 20 -25 20 -31 0 -6 7 -9 15 -5 18 7 20 -15
3 -33 -11 -11 -9 -12 9 -7 17 6 20 3 16 -12 -3 -12 2 -22 11 -25 10 -4 13 -1
9 9 -3 7 0 14 6 14 10 0 16 -33 11 -73 -1 -10 4 -25 11 -33 6 -8 9 -18 5 -22
-4 -4 -11 0 -16 8 -20 35 -39 54 -46 47 -4 -4 -3 -12 3 -18 6 -6 9 -17 6 -25
-4 -10 -10 -10 -28 -2 -19 9 -22 15 -15 29 13 24 13 29 -4 29 -8 0 -13 -8 -12
-17 1 -23 -42 -31 -50 -9 -3 9 -14 16 -23 15 -10 0 -11 -2 -3 -6 6 -2 12 -9
12 -14 0 -12 -47 -12 -55 1 -3 6 -23 10 -45 10 -34 0 -39 3 -49 32 -18 50 -34
226 -28 293 7 74 52 204 121 355 29 63 56 122 58 130 3 8 26 40 50 70 25 30
52 69 61 87 17 33 24 40 76 86 29 25 31 26 31 7 0 -24 45 -28 54 -5 3 8 15 15
28 15 17 0 19 3 10 12 -16 16 -15 55 1 61 10 4 10 6 0 6 -7 1 -22 -8 -33 -19
-11 -11 -29 -20 -40 -20 -11 0 -20 -4 -20 -10 0 -5 -6 -7 -13 -4 -7 2 -34 -19
-61 -47 -75 -80 -73 -48 6 58 47 65 49 76 3 27 -19 -20 -38 -34 -42 -31 -12
12 28 82 72 127 47 48 58 75 26 65 -15 -4 -20 1 -25 25 -5 26 -9 30 -26 25
-14 -5 -20 -2 -20 9 0 19 2 19 -49 1 -23 -8 -39 -10 -36 -5 3 6 -5 10 -18 10
-27 0 -47 38 -47 90 0 15 -9 35 -20 45 -20 18 -21 18 -27 -3 -7 -26 -18 -28
-28 -4 -6 15 -8 14 -16 -6 -11 -28 11 -82 49 -124 25 -27 25 -28 5 -28 -31 0
-73 55 -73 95 0 26 -3 33 -15 29 -10 -4 -15 0 -15 14 0 12 -5 32 -11 46 -10
20 -8 28 9 46 20 22 20 22 31 2 16 -31 13 -51 -4 -28 -21 28 -29 13 -14 -28
16 -43 24 -45 34 -8 15 58 14 72 -5 117 -24 56 -24 55 -5 55 8 0 15 4 15 9 0
5 20 9 44 8 54 -2 60 3 45 37 -8 18 -23 28 -46 32 -23 4 -38 15 -45 30 -6 13
-17 24 -24 24 -21 0 -25 35 -13 105 9 56 14 66 29 62 13 -3 16 0 13 14 -3 10
-9 17 -13 14 -4 -3 -15 6 -24 20 -9 14 -23 25 -31 25 -18 0 -20 26 -2 33 7 3
5 6 -5 6 -19 1 -63 -37 -63 -54 0 -5 -10 -9 -21 -7 -12 2 -24 -4 -27 -13 -5
-10 -20 -15 -51 -15 -36 0 -50 6 -76 31 -48 48 -128 59 -155 22 -9 -12 -16
-11 -50 3 -22 9 -50 25 -64 35 -40 32 -60 22 -21 -10z m347 -137 c-9 -9 -28 6
-21 18 4 6 10 6 17 -1 6 -6 8 -13 4 -17z m-310 0 c-3 -3 -12 -4 -19 -1 -8 3
-5 6 6 6 11 1 17 -2 13 -5z m453 -18 c0 -11 -19 -15 -25 -6 -3 5 1 10 9 10 9
0 16 -2 16 -4z m-103 -28 c-3 -8 -6 -5 -6 6 -1 11 2 17 5 13 3 -3 4 -12 1 -19z
m43 2 c0 -5 -4 -10 -10 -10 -5 0 -10 5 -10 10 0 6 5 10 10 10 6 0 10 -4 10
-10z m-67 -42 c9 -31 2 -33 -11 -3 -6 14 -8 25 -3 25 5 0 11 -10 14 -22z m47
7 c0 -8 -2 -15 -4 -15 -2 0 -6 7 -10 15 -3 8 -1 15 4 15 6 0 10 -7 10 -15z
m175 -155 c3 -5 2 -10 -4 -10 -5 0 -13 5 -16 10 -3 6 -2 10 4 10 5 0 13 -4 16
-10z m-568 -22 c-3 -8 -6 -5 -6 6 -1 11 2 17 5 13 3 -3 4 -12 1 -19z m560
-352 c17 -20 19 -26 8 -26 -8 0 -15 5 -15 10 0 6 -6 10 -14 10 -18 0 -37 76
-28 115 6 27 7 25 17 -27 6 -32 20 -68 32 -82z m-1020 -148 c-3 -7 -5 -2 -5
12 0 14 2 19 5 13 2 -7 2 -19 0 -25z m806 -106 c15 -7 14 -11 -14 -45 -17 -20
-35 -37 -40 -37 -17 0 -10 68 9 79 20 12 21 12 45 3z m-1623 -18 c0 -2 -7 -4
-15 -4 -8 0 -15 4 -15 10 0 5 7 7 15 4 8 -4 15 -8 15 -10z m173 -1 c-7 -2 -21
-2 -30 0 -10 3 -4 5 12 5 17 0 24 -2 18 -5z m866 -40 c23 -22 33 -64 21 -83
-8 -12 -10 -9 -10 13 0 15 -4 27 -9 27 -5 0 -11 8 -15 18 -3 9 -9 23 -12 30
-8 17 4 15 25 -5z m-729 -45 c0 -12 -13 -9 -32 6 -26 19 -22 26 7 13 14 -7 25
-15 25 -19z m890 22 c0 -5 -5 -10 -11 -10 -5 0 -7 5 -4 10 3 6 8 10 11 10 2 0
4 -4 4 -10z m-1170 -30 c13 -8 13 -10 -2 -10 -9 0 -20 5 -23 10 -8 13 5 13 25
0z m346 -26 c28 -29 29 -34 9 -34 -8 0 -15 4 -15 9 0 5 -10 11 -22 13 -27 4
-38 38 -12 38 9 0 27 -11 40 -26z m-284 -31 c7 -1 31 -7 53 -11 l40 -8 -30 -6
c-18 -4 -33 -2 -37 5 -4 6 -10 8 -14 5 -11 -12 -44 11 -44 30 0 14 2 14 9 3 5
-8 15 -16 23 -18z m122 -63 c20 -20 -2 -19 -40 1 l-39 20 35 -6 c19 -3 39 -10
44 -15z m123 -26 c-3 -3 -12 -4 -19 -1 -8 3 -5 6 6 6 11 1 17 -2 13 -5z m-12
-34 c-3 -5 -12 -7 -20 -3 -21 7 -19 13 6 13 11 0 18 -4 14 -10z m50 0 c-3 -5
-14 -10 -23 -9 -14 0 -13 2 3 9 27 11 27 11 20 0z m135 0 c13 -9 13 -10 0 -10
-8 0 -22 5 -30 10 -13 9 -13 10 0 10 8 0 22 -5 30 -10z m-75 -20 c-27 -12 -43
-12 -25 0 8 5 22 9 30 9 10 0 8 -3 -5 -9z m1762 -752 c41 -30 43 -33 26 -45
-25 -19 -46 -12 -48 14 -1 13 -5 26 -9 30 -4 5 -6 0 -4 -9 1 -9 -1 -18 -7 -20
-5 -2 -11 12 -12 30 -1 17 1 32 4 32 2 0 25 -14 50 -32z m81 -44 l-4 -29 -12
28 c-13 31 -7 56 10 39 5 -5 8 -22 6 -38z m-105 -49 c-7 -21 -13 -19 -13 6 0
11 4 18 10 14 5 -3 7 -12 3 -20z"/>
<path d="M3980 2191 c0 -6 5 -13 10 -16 6 -3 10 1 10 9 0 9 -4 16 -10 16 -5 0
-10 -4 -10 -9z"/>
<path d="M4368 2173 c7 -3 16 -2 19 1 4 3 -2 6 -13 5 -11 0 -14 -3 -6 -6z"/>
<path d="M1970 2162 c0 -6 13 -15 29 -20 25 -9 29 -8 24 4 -3 8 -9 14 -13 14
-5 0 -15 3 -24 6 -9 3 -16 2 -16 -4z"/>
<path d="M4010 2156 c0 -8 4 -17 9 -20 5 -4 7 3 4 14 -6 23 -13 26 -13 6z"/>
<path d="M4310 2144 c-13 -34 -13 -39 4 -25 17 14 28 51 15 51 -5 0 -14 -12
-19 -26z"/>
<path d="M2727 2145 c-4 -8 -2 -17 3 -20 6 -4 10 3 10 14 0 25 -6 27 -13 6z"/>
<path d="M2187 2133 c-4 -3 -7 -16 -7 -27 1 -21 1 -21 12 -1 6 11 16 23 22 27
7 5 5 8 -5 8 -9 0 -19 -3 -22 -7z"/>
<path d="M4061 2131 c-8 -5 -9 -11 -3 -15 5 -3 12 1 16 9 6 17 6 18 -13 6z"/>
<path d="M1913 2105 c-18 -20 -17 -22 13 -29 30 -8 67 1 59 15 -4 5 4 13 17
18 21 9 21 10 -9 10 -20 1 -32 -4 -30 -10 1 -6 -4 -14 -10 -16 -7 -3 -13 2
-13 11 0 20 -11 20 -27 1z"/>
<path d="M2205 2081 c-6 -11 9 -23 19 -14 9 9 7 23 -3 23 -6 0 -12 -4 -16 -9z"/>
<path d="M4740 2086 c0 -4 9 -16 20 -28 11 -12 20 -17 20 -11 0 5 -9 18 -20
28 -11 10 -20 15 -20 11z"/>
<path d="M2140 2058 c0 -18 5 -28 15 -28 19 0 19 11 0 36 -14 18 -14 18 -15
-8z"/>
<path d="M2065 2053 c5 -10 10 -32 13 -50 4 -32 21 -46 46 -37 19 7 -27 104
-50 104 -12 0 -14 -5 -9 -17z"/>
<path d="M2182 2023 c-1 -25 1 -34 8 -27 13 13 17 56 5 60 -5 2 -11 -13 -13
-33z"/>
<path d="M1935 2020 c3 -5 14 -10 23 -10 15 0 15 2 2 10 -20 13 -33 13 -25 0z"/>
<path d="M3842 2008 c-15 -15 -15 -29 2 -51 12 -15 13 -13 12 23 0 22 -1 40
-1 40 -1 0 -6 -5 -13 -12z"/>
<path d="M1640 2000 c0 -5 5 -10 10 -10 6 0 10 5 10 10 0 6 -4 10 -10 10 -5 0
-10 -4 -10 -10z"/>
<path d="M1867 2004 c-9 -9 42 -44 65 -44 11 0 15 6 11 20 -3 11 -13 20 -23
20 -10 0 -25 2 -32 5 -8 3 -17 2 -21 -1z"/>
<path d="M2577 1999 c7 -7 15 -10 18 -7 3 3 -2 9 -12 12 -14 6 -15 5 -6 -5z"/>
<path d="M3798 1989 c-2 -38 2 -63 12 -73 6 -6 8 9 6 37 -3 51 -15 75 -18 36z"/>
<path d="M4220 1980 c0 -5 5 -10 10 -10 6 0 10 5 10 10 0 6 -4 10 -10 10 -5 0
-10 -4 -10 -10z"/>
<path d="M2328 1973 c-9 -2 -20 -13 -23 -23 -3 -10 -14 -21 -23 -23 -9 -3 -3
-5 14 -6 18 0 34 -7 38 -16 3 -8 15 -15 26 -15 11 0 20 -5 20 -12 0 -6 9 -2
20 10 22 23 40 29 40 12 0 -5 -6 -10 -12 -10 -7 0 0 -7 17 -16 25 -13 39 -14
93 -3 56 10 69 9 130 -10 66 -22 142 -75 142 -100 0 -6 4 -9 10 -6 6 4 4 17
-5 35 -8 16 -15 44 -15 63 0 19 -7 40 -16 48 -10 8 -13 21 -9 38 6 24 5 24
-12 10 -13 -11 -31 -15 -61 -11 l-44 4 29 19 c19 13 23 19 11 19 -22 0 -48
-27 -42 -44 3 -7 20 -20 39 -29 19 -9 35 -21 35 -26 0 -15 -18 -23 -25 -11 -3
5 -12 10 -20 10 -8 0 -47 16 -88 35 -56 27 -85 34 -123 33 -104 -3 -137 1
-130 17 3 8 4 14 3 14 -1 -1 -10 -3 -19 -6z m427 -73 c3 -5 1 -10 -4 -10 -6 0
-11 5 -11 10 0 6 2 10 4 10 3 0 8 -4 11 -10z m25 -30 c0 -5 -6 -10 -14 -10 -8
0 -18 5 -21 10 -3 6 3 10 14 10 12 0 21 -4 21 -10z"/>
<path d="M2158 1945 c-3 -3 -3 -27 0 -53 l4 -48 -57 -37 c-32 -20 -64 -37 -71
-37 -29 0 -12 -16 41 -39 30 -13 55 -27 55 -31 0 -13 49 -40 55 -31 3 5 -8 23
-25 39 -16 17 -30 35 -30 40 0 13 55 32 91 32 27 0 29 3 29 39 0 22 -5 43 -10
46 -6 4 -9 12 -8 19 2 7 -11 25 -28 39 -33 28 -37 30 -46 22z"/>
<path d="M3405 1940 c3 -5 11 -10 16 -10 6 0 7 5 4 10 -3 6 -11 10 -16 10 -6
0 -7 -4 -4 -10z"/>
<path d="M1890 1909 c0 -5 10 -9 23 -9 12 0 35 -7 51 -15 15 -8 35 -15 42 -15
13 0 15 4 18 30 1 7 -27 12 -66 14 -38 2 -68 0 -68 -5z"/>
<path d="M1768 1883 c7 -3 16 -2 19 1 4 3 -2 6 -13 5 -11 0 -14 -3 -6 -6z"/>
<path d="M2993 1883 c-7 -2 -13 -14 -13 -25 0 -16 -3 -18 -14 -9 -22 18 -40
-12 -32 -54 7 -38 52 -70 84 -62 15 4 15 5 0 6 -21 1 -25 40 -6 59 10 10 8 16
-5 29 -16 16 -15 18 5 40 21 22 13 29 -19 16z"/>
<path d="M3570 1846 c0 -9 7 -16 16 -16 17 0 14 22 -4 28 -7 2 -12 -3 -12 -12z"/>
<path d="M4740 1844 c0 -7 -12 -15 -26 -18 -43 -11 -20 -18 35 -10 39 5 51 11
51 24 0 13 -8 17 -30 16 -16 -1 -30 -6 -30 -12z"/>
<path d="M3110 1820 c0 -5 7 -10 15 -10 8 0 15 5 15 10 0 6 -7 10 -15 10 -8 0
-15 -4 -15 -10z"/>
<path d="M3048 1795 c-8 -18 -8 -29 -1 -36 7 -7 12 0 15 25 5 43 2 45 -14 11z"/>
<path d="M4785 1800 c3 -5 8 -10 11 -10 2 0 4 5 4 10 0 6 -5 10 -11 10 -5 0
-7 -4 -4 -10z"/>
<path d="M4530 1780 c0 -5 5 -10 10 -10 6 0 10 5 10 10 0 6 -4 10 -10 10 -5 0
-10 -4 -10 -10z"/>
<path d="M2664 1746 c7 -20 23 -47 34 -59 20 -19 22 -19 22 -4 0 10 -5 23 -10
30 -6 7 -21 25 -35 41 l-24 30 13 -38z"/>
<path d="M2375 1740 c-4 -6 6 -10 22 -10 22 0 25 2 13 10 -19 12 -27 12 -35 0z"/>
<path d="M2840 1725 c0 -14 -4 -25 -10 -25 -19 0 -10 -17 16 -29 26 -11 26
-12 8 -26 -14 -10 -16 -17 -8 -25 7 -7 16 -5 29 10 17 19 18 19 44 1 14 -10
45 -22 69 -26 35 -6 42 -4 42 9 0 21 5 20 57 -5 42 -20 73 -20 73 1 0 5 -4 10
-10 10 -5 0 -10 9 -10 20 0 15 -7 20 -24 20 -14 0 -28 5 -31 10 -3 6 -32 10
-64 10 -57 0 -123 19 -136 40 -3 5 -15 15 -26 20 -16 9 -19 7 -19 -15z"/>
<path d="M3376 1699 c1 -14 -2 -32 -9 -39 -10 -10 -7 -11 13 -5 l25 8 -25 -21
c-14 -11 -21 -24 -17 -28 4 -5 11 -4 15 2 4 6 17 17 30 26 l23 16 -24 19 c-14
10 -27 26 -30 34 -2 8 -3 2 -1 -12z"/>
<path d="M2240 1710 c0 -5 11 -10 24 -10 14 0 28 5 31 10 4 6 -7 10 -24 10
-17 0 -31 -4 -31 -10z"/>
<path d="M3877 1686 c3 -22 1 -42 -7 -51 -7 -8 -8 -15 -3 -15 14 0 95 81 88
88 -3 3 -23 7 -45 9 l-39 4 6 -35z"/>
<path d="M2666 1661 c-3 -5 3 -11 13 -14 14 -3 18 -1 14 9 -6 16 -19 18 -27 5z"/>
<path d="M3460 1620 c0 -5 9 -10 20 -10 11 0 20 -4 20 -10 0 -10 39 -34 46
-27 10 10 -9 37 -26 37 -11 0 -22 5 -25 10 -3 6 -13 10 -21 10 -8 0 -14 -4
-14 -10z"/>
<path d="M2460 1594 c0 -18 23 -44 39 -44 15 0 14 12 -5 38 -18 26 -34 29 -34
6z"/>
<path d="M3317 1593 c18 -7 28 -70 13 -88 -10 -12 -9 -15 8 -15 15 0 22 7 24
27 2 20 12 32 38 45 l35 16 -25 10 c-14 5 -26 6 -28 2 -2 -5 -17 -4 -35 1 -33
9 -51 11 -30 2z"/>
<path d="M2685 1580 c-3 -5 1 -10 9 -10 9 0 16 5 16 10 0 6 -4 10 -9 10 -6 0
-13 -4 -16 -10z"/>
<path d="M3457 1576 c-4 -10 1 -12 14 -9 23 6 24 9 5 16 -8 3 -17 0 -19 -7z"/>
<path d="M3193 1563 c-16 -6 -17 -46 -1 -41 12 4 32 48 20 47 -4 0 -13 -3 -19
-6z"/>
<path d="M3033 1533 c9 -11 17 -27 17 -37 0 -9 4 -15 9 -12 15 9 0 46 -23 58
-20 11 -20 10 -3 -9z"/>
<path d="M3427 1523 c-2 -5 -4 -24 -5 -43 -2 -19 -5 -43 -8 -52 -3 -11 2 -19
16 -23 25 -8 40 2 21 14 -10 6 -12 23 -9 60 4 44 -3 66 -15 44z"/>
<path d="M3213 1505 c-7 -8 -13 -20 -13 -27 0 -10 2 -10 9 1 7 11 10 10 14 -5
3 -12 5 -6 6 14 1 36 1 37 -16 17z"/>
<path d="M3271 1474 c0 -11 3 -14 6 -6 3 7 2 16 -1 19 -3 4 -6 -2 -5 -13z"/>
<path d="M3317 1474 c-7 -7 13 -64 22 -64 9 0 1 59 -9 65 -4 2 -10 2 -13 -1z"/>
<path d="M3381 1454 c0 -11 3 -14 6 -6 3 7 2 16 -1 19 -3 4 -6 -2 -5 -13z"/>
<path d="M2639 1429 c16 -6 28 -6 35 1 7 7 -1 10 -24 9 -33 0 -34 -1 -11 -10z"/>
<path d="M3064 1428 c1 -7 12 -14 24 -16 17 -3 20 1 16 13 -5 11 -10 13 -19 5
-9 -8 -15 -8 -18 0 -3 6 -4 5 -3 -2z"/>
<path d="M2690 1420 c0 -5 12 -10 28 -10 21 0 24 2 12 10 -20 13 -40 13 -40 0z"/>
<path d="M3053 1351 c-3 -12 -12 -21 -20 -21 -8 0 -12 -4 -9 -9 4 -6 86 -8
104 -2 6 2 -24 28 -46 40 -21 11 -24 10 -29 -8z"/>
<path d="M3020 1286 c0 -9 5 -16 10 -16 6 0 10 4 10 9 0 6 -4 13 -10 16 -5 3
-10 -1 -10 -9z"/>
<path d="M4260 1241 c0 -5 -13 -12 -30 -16 -36 -8 -39 -21 -6 -29 35 -9 58 3
51 24 -4 12 0 20 12 23 14 4 13 5 -4 6 -13 0 -23 -3 -23 -8z"/>
<path d="M2000 1220 c0 -5 5 -10 10 -10 6 0 10 5 10 10 0 6 -4 10 -10 10 -5 0
-10 -4 -10 -10z"/>
<path d="M4160 1130 c0 -5 5 -10 10 -10 6 0 10 5 10 10 0 6 -4 10 -10 10 -5 0
-10 -4 -10 -10z"/>
<path d="M4160 1081 c-5 -11 -10 -25 -10 -32 0 -18 27 7 33 31 7 26 -9 26 -23
1z"/>
<path d="M4260 1066 c0 -9 9 -16 20 -16 12 0 31 -7 45 -16 16 -10 34 -13 59
-9 39 8 64 29 46 40 -5 3 -10 4 -10 1 0 -3 -11 -1 -24 4 -17 6 -30 4 -46 -7
-19 -13 -26 -13 -48 -2 -15 7 -30 15 -34 17 -5 2 -8 -4 -8 -12z"/>
<path d="M2400 1020 c0 -5 7 -10 15 -10 8 0 15 5 15 10 0 6 -7 10 -15 10 -8 0
-15 -4 -15 -10z"/>
<path d="M2490 865 c-10 -12 -10 -15 4 -15 9 0 16 7 16 15 0 8 -2 15 -4 15 -2
0 -9 -7 -16 -15z"/>
<path d="M4253 856 c0 -7 9 -13 19 -13 10 -1 18 2 18 6 0 5 -8 11 -18 13 -10
3 -19 0 -19 -6z"/>
<path d="M2521 834 c0 -11 3 -14 6 -6 3 7 2 16 -1 19 -3 4 -6 -2 -5 -13z"/>
<path d="M1765 765 c-19 -30 -35 -57 -35 -60 0 -3 -10 -22 -23 -43 -13 -20
-37 -62 -54 -92 -17 -30 -78 -134 -135 -232 l-106 -176 157 -78 c152 -75 158
-77 242 -82 l86 -4 123 213 c67 118 138 238 157 267 43 67 75 124 71 127 -14
11 -128 66 -143 70 -11 2 -47 15 -80 29 -33 14 -65 26 -72 26 -6 0 -18 8 -25
18 -7 10 -39 30 -71 45 l-58 26 -34 -54z"/>
<path d="M4687 711 c-3 -11 0 -22 7 -24 6 -3 12 6 12 19 2 29 -12 32 -19 5z"/>
<path d="M4695 540 c-3 -5 1 -10 10 -10 9 0 13 5 10 10 -3 6 -8 10 -10 10 -2
0 -7 -4 -10 -10z"/>
<path d="M4785 350 c-3 -5 -1 -10 4 -10 6 0 11 5 11 10 0 6 -2 10 -4 10 -3 0
-8 -4 -11 -10z"/>
<path d="M4730 306 c-32 -18 -38 -72 -8 -82 32 -10 13 -16 -28 -8 -34 6 -36 8
-19 20 21 15 17 17 -35 14 -46 -2 -60 -17 -29 -29 17 -7 19 -10 7 -10 -20 -1
-25 -21 -5 -21 9 0 9 -2 -1 -9 -11 -7 -11 -9 2 -14 9 -4 16 -10 16 -15 0 -13
-55 -72 -68 -72 -6 0 -18 -8 -28 -17 -12 -12 -33 -18 -66 -18 -26 0 -48 -3
-48 -7 0 -6 -23 -12 -90 -23 -19 -3 -36 -8 -39 -11 -2 -2 111 -4 252 -4 l257
0 0 85 c0 67 -3 85 -14 85 -8 0 -18 -5 -21 -10 -4 -6 -11 -8 -16 -4 -6 4 -6
11 1 19 7 8 9 19 5 25 -4 7 2 7 19 0 26 -9 26 -9 26 45 0 43 -4 56 -19 65 -24
12 -20 12 -51 -4z"/>
<path d="M1122 90 c6 -23 13 -39 16 -36 7 8 -8 76 -17 76 -5 0 -4 -18 1 -40z"/>
<path d="M4236 85 c-3 -8 -1 -15 4 -15 6 0 10 7 10 15 0 8 -2 15 -4 15 -2 0
-6 -7 -10 -15z"/>
</g>
</svg>
